<svg width="181" height="166" viewBox="0 0 181 166" fill="none" xmlns="http://www.w3.org/2000/svg">
<path d="M72.9303 10.397C80.6135 -3.46567 100.584 -3.46567 108.268 10.397L177.793 135.779C185.243 149.212 175.505 165.69 160.12 165.69H21.0867C5.69339 165.69 -4.04525 149.212 3.40458 135.779L72.9303 10.406V10.397ZM99.5612 129.869C99.5992 128.671 99.3955 127.477 98.9622 126.359C98.5289 125.241 97.8749 124.221 97.0389 123.361C96.2029 122.5 95.2021 121.815 94.0958 121.348C92.9895 120.88 91.8004 120.639 90.599 120.639C89.3976 120.639 88.2084 120.88 87.1021 121.348C85.9959 121.815 84.995 122.5 84.159 123.361C83.3231 124.221 82.669 125.241 82.2357 126.359C81.8024 127.477 81.5987 128.671 81.6367 129.869C81.7104 132.191 82.6869 134.394 84.3596 136.011C86.0323 137.628 88.27 138.532 90.599 138.532C92.928 138.532 95.1656 137.628 96.8383 136.011C98.511 134.394 99.4875 132.191 99.5612 129.869ZM97.2365 59.5433C97.0039 57.8567 96.138 56.3212 94.814 55.2472C93.49 54.1733 91.8066 53.6411 90.1042 53.7583C88.4019 53.8755 86.8077 54.6333 85.644 55.8784C84.4803 57.1236 83.834 58.7632 83.8358 60.4657L83.8717 100.773L83.9345 101.687C84.1671 103.373 85.033 104.909 86.357 105.983C87.681 107.057 89.3644 107.589 91.0668 107.472C92.7691 107.354 94.3633 106.597 95.527 105.352C96.6907 104.106 97.337 102.467 97.3352 100.764L97.2993 60.4478L97.2365 59.5433Z" fill="#9A5E15"/>
</svg>
