<svg width="25" height="25" viewBox="0 0 25 25" fill="none" xmlns="http://www.w3.org/2000/svg">
<path d="M12.5 25C10.0277 25 7.61099 24.2669 5.55538 22.8934C3.49976 21.5199 1.89761 19.5676 0.951511 17.2835C0.00541604 14.9995 -0.242126 12.4861 0.24019 10.0614C0.722505 7.63661 1.91301 5.40933 3.66117 3.66117C5.40933 1.91301 7.63661 0.722505 10.0614 0.24019C12.4861 -0.242126 14.9995 0.00541604 17.2835 0.951511C19.5676 1.89761 21.5199 3.49976 22.8934 5.55538C24.2669 7.61099 25 10.0277 25 12.5C25 15.8152 23.683 18.9946 21.3388 21.3388C18.9946 23.683 15.8152 25 12.5 25ZM12.5 1.78572C10.3809 1.78572 8.30942 2.4141 6.54747 3.5914C4.78551 4.7687 3.41223 6.44205 2.6013 8.39982C1.79036 10.3576 1.57818 12.5119 1.99159 14.5903C2.405 16.6686 3.42544 18.5777 4.92386 20.0761C6.42228 21.5746 8.33138 22.595 10.4098 23.0084C12.4881 23.4218 14.6424 23.2096 16.6002 22.3987C18.558 21.5878 20.2313 20.2145 21.4086 18.4525C22.5859 16.6906 23.2143 14.6191 23.2143 12.5C23.2143 9.6584 22.0855 6.93318 20.0761 4.92386C18.0668 2.91454 15.3416 1.78572 12.5 1.78572Z" fill="#7E7E7E"/>
<path d="M16.5982 17.8567L11.6071 12.8657V4.46387H13.3928V12.1246L17.8571 16.5978L16.5982 17.8567Z" fill="#7E7E7E"/>
</svg>
