<svg width="28" height="27" viewBox="0 0 28 27" fill="none" xmlns="http://www.w3.org/2000/svg">
<path d="M1.71106 23.0068C1.8878 24.4438 3.04265 25.5789 4.48732 25.6741C7.43009 25.868 10.3439 25.9706 13.6274 25.9706C16.9109 25.9706 19.8247 25.868 22.7675 25.6741C24.2122 25.5789 25.367 24.4438 25.5437 23.0068C25.8769 20.2981 26.2548 17.4788 26.2548 14.5834C26.2548 11.6881 25.8769 8.86875 25.5437 6.16005C25.367 4.72308 24.2122 3.58799 22.7675 3.49278C19.8247 3.29883 16.9109 3.19629 13.6274 3.19629C10.3439 3.19629 7.43009 3.29883 4.48732 3.49278C3.04265 3.58799 1.8878 4.72308 1.71106 6.16005C1.3779 8.86875 1 11.6881 1 14.5834C1 17.4788 1.3779 20.2981 1.71106 23.0068Z" fill="white"/>
<path d="M8.98096 1L8.98096 6.07216" stroke="#3E4958" stroke-width="1.5" stroke-linecap="round"/>
<path d="M18.2593 1L18.2593 6.07216" stroke="#3E4958" stroke-width="1.5" stroke-linecap="round"/>
<path d="M25.3501 12.6953L1.90546 12.6953L2.23455 4.63563L13.4896 3.84714L25.3501 4.63563L25.3501 12.6953Z" fill="#D5DDE0"/>
<path d="M25.5437 6.16005L26.2881 6.0685L25.5437 6.16005ZM22.7675 3.49278L22.7182 4.24115L22.7675 3.49278ZM25.5437 23.0068L24.7993 22.9152L25.5437 23.0068ZM4.48732 25.6741L4.438 26.4224L4.48732 25.6741ZM13.6274 25.2206C10.3605 25.2206 7.46318 25.1186 4.53664 24.9257L4.438 26.4224C7.397 26.6175 10.3273 26.7206 13.6274 26.7206V25.2206ZM22.7182 24.9257C19.7916 25.1186 16.8943 25.2206 13.6274 25.2206V26.7206C16.9275 26.7206 19.8578 26.6175 22.8168 26.4224L22.7182 24.9257ZM26.2881 23.0984C26.6195 20.4046 27.0048 17.5346 27.0048 14.5834H25.5048C25.5048 17.423 25.1343 20.1916 24.7993 22.9152L26.2881 23.0984ZM27.0048 14.5834C27.0048 11.6323 26.6195 8.76226 26.2881 6.0685L24.7993 6.25161C25.1343 8.97525 25.5048 11.7439 25.5048 14.5834H27.0048ZM13.6274 3.94629C16.8943 3.94629 19.7916 4.04828 22.7182 4.24115L22.8168 2.7444C19.8578 2.54939 16.9275 2.44629 13.6274 2.44629V3.94629ZM4.53664 4.24115C7.46318 4.04828 10.3605 3.94629 13.6274 3.94629V2.44629C10.3273 2.44629 7.397 2.54939 4.438 2.7444L4.53664 4.24115ZM0.966671 6.06849C0.63535 8.76226 0.25 11.6323 0.25 14.5834H1.75C1.75 11.7439 2.12046 8.97524 2.45545 6.25161L0.966671 6.06849ZM0.25 14.5834C0.25 17.5346 0.63535 20.4046 0.966671 23.0984L2.45545 22.9152C2.12046 20.1916 1.75 17.423 1.75 14.5834H0.25ZM26.2881 6.0685C26.0693 4.28921 24.6358 2.86428 22.8168 2.7444L22.7182 4.24115C23.7885 4.3117 24.6647 5.15695 24.7993 6.25161L26.2881 6.0685ZM22.8168 26.4224C24.6358 26.3026 26.0693 24.8776 26.2881 23.0984L24.7993 22.9152C24.6647 24.0099 23.7885 24.8552 22.7182 24.9257L22.8168 26.4224ZM4.438 2.7444C2.61903 2.86428 1.18552 4.28921 0.966671 6.06849L2.45545 6.25161C2.59009 5.15695 3.46627 4.3117 4.53664 4.24115L4.438 2.7444ZM4.53664 24.9257C3.46627 24.8552 2.59009 24.0099 2.45545 22.9152L0.966671 23.0984C1.18552 24.8776 2.61903 26.3026 4.438 26.4224L4.53664 24.9257Z" fill="#3E4958"/>
<path d="M1.60425 11.9355H25.7749" stroke="#3E4958" stroke-width="1.5"/>
</svg>
