<svg width="27" height="27" viewBox="0 0 27 27" fill="none" xmlns="http://www.w3.org/2000/svg">
<path d="M1.68653 23.0044C1.85741 24.4427 3.00921 25.5822 4.45431 25.6799C7.26758 25.8701 10.0572 25.9706 13.1968 25.9706C16.3364 25.9706 19.126 25.8701 21.9393 25.6799C23.3844 25.5822 24.5362 24.4427 24.7071 23.0044C25.0288 20.2964 25.3936 17.4779 25.3936 14.5834C25.3936 11.6889 25.0288 8.87043 24.7071 6.16246C24.5362 4.72418 23.3844 3.58463 21.9393 3.48694C19.126 3.29678 16.3364 3.19629 13.1968 3.19629C10.0572 3.19629 7.26758 3.29678 4.45431 3.48694C3.00921 3.58463 1.85741 4.72418 1.68653 6.16246C1.3648 8.87042 1 11.6889 1 14.5834C1 17.4779 1.3648 20.2964 1.68653 23.0044Z" fill="white"/>
<path d="M8.70886 1L8.70886 6.07216" stroke="#7E7E7E" stroke-width="1.5" stroke-linecap="round"/>
<path d="M17.6709 1L17.6709 6.07216" stroke="#7E7E7E" stroke-width="1.5" stroke-linecap="round"/>
<path d="M24.7071 6.16246L23.9623 6.25095L24.7071 6.16246ZM4.45431 25.6799L4.40373 26.4282L4.45431 25.6799ZM1.68653 23.0044L0.941765 23.0929L1.68653 23.0044ZM13.1968 25.2206C10.0743 25.2206 7.30148 25.1206 4.5049 24.9316L4.40373 26.4282C7.23367 26.6195 10.0402 26.7206 13.1968 26.7206V25.2206ZM21.8887 24.9316C19.0921 25.1207 16.3193 25.2206 13.1968 25.2206V26.7206C16.3534 26.7206 19.1599 26.6195 21.9899 26.4282L21.8887 24.9316ZM25.4518 23.0929C25.7718 20.3993 26.1436 17.5318 26.1436 14.5834H24.6436C24.6436 17.424 24.2857 20.1936 23.9623 22.9159L25.4518 23.0929ZM26.1436 14.5834C26.1436 11.635 25.7718 8.76756 25.4518 6.07398L23.9623 6.25095C24.2857 8.97329 24.6436 11.7428 24.6436 14.5834H26.1436ZM13.1968 3.94629C16.3193 3.94629 19.0921 4.0462 21.8887 4.23524L21.9899 2.73865C19.1599 2.54736 16.3534 2.44629 13.1968 2.44629V3.94629ZM4.50489 4.23524C7.30148 4.0462 10.0743 3.94629 13.1968 3.94629V2.44629C10.0402 2.44629 7.23367 2.54736 4.40373 2.73865L4.50489 4.23524ZM0.941765 6.07398C0.621746 8.76756 0.25 11.635 0.25 14.5834H1.75C1.75 11.7428 2.10785 8.97329 2.43129 6.25095L0.941765 6.07398ZM0.25 14.5834C0.25 17.5318 0.621746 20.3993 0.941765 23.0929L2.43129 22.9159C2.10785 20.1936 1.75 17.424 1.75 14.5834H0.25ZM25.4518 6.07398C25.2402 4.29284 23.8102 2.8617 21.9899 2.73865L21.8887 4.23524C22.9585 4.30755 23.8322 5.15552 23.9623 6.25095L25.4518 6.07398ZM21.9899 26.4282C23.8102 26.3051 25.2402 24.874 25.4518 23.0929L23.9623 22.9159C23.8322 24.0113 22.9585 24.8593 21.8887 24.9316L21.9899 26.4282ZM4.40373 2.73865C2.58338 2.8617 1.15338 4.29284 0.941765 6.07398L2.43129 6.25095C2.56143 5.15552 3.43505 4.30755 4.50489 4.23524L4.40373 2.73865ZM4.5049 24.9316C3.43505 24.8593 2.56144 24.0113 2.43129 22.9159L0.941765 23.0929C1.15338 24.874 2.58338 26.3051 4.40373 26.4282L4.5049 24.9316Z" fill="#7E7E7E"/>
<path d="M1.58374 11.9355H24.9302" stroke="#7E7E7E" stroke-width="1.5"/>
</svg>
