<svg width="20" height="20" viewBox="0 0 20 20" fill="none" xmlns="http://www.w3.org/2000/svg">
<path d="M1 5.31348H19" stroke="#825310" stroke-width="1.5" stroke-linecap="round"/>
<path d="M16.4667 5.31348H3.52739L3.43479 6.98769C3.25737 10.1954 3.40812 13.4129 3.88468 16.59C4.0925 17.9754 5.28265 19.0004 6.6836 19.0004H13.3105C14.7114 19.0004 15.9016 17.9754 16.1094 16.59C16.586 13.4129 16.7367 10.1954 16.5593 6.98769L16.4667 5.31348Z" fill="#D7E0FF"/>
<path d="M3.52739 5.31348V4.56348C3.12927 4.56348 2.80052 4.87454 2.77854 5.27206L3.52739 5.31348ZM16.4667 5.31348L17.2155 5.27206C17.1936 4.87454 16.8648 4.56348 16.4667 4.56348V5.31348ZM16.5593 6.98769L17.3081 6.94627L17.3081 6.94627L16.5593 6.98769ZM3.43479 6.98769L2.68594 6.94627L3.43479 6.98769ZM3.88468 16.59L4.62639 16.4787L4.62639 16.4787L3.88468 16.59ZM16.1094 16.59L16.8511 16.7012L16.8511 16.7012L16.1094 16.59ZM3.52739 6.06348H16.4667V4.56348H3.52739V6.06348ZM13.3105 18.2504H6.6836V19.7504H13.3105V18.2504ZM15.7178 5.3549L15.8104 7.02911L17.3081 6.94627L17.2155 5.27206L15.7178 5.3549ZM4.18365 7.02911L4.27625 5.3549L2.77854 5.27206L2.68594 6.94627L4.18365 7.02911ZM4.62639 16.4787C4.1574 13.3522 4.00905 10.1858 4.18365 7.02911L2.68594 6.94627C2.5057 10.205 2.65884 13.4736 3.14298 16.7012L4.62639 16.4787ZM15.8104 7.02911C15.985 10.1858 15.8367 13.3522 15.3677 16.4787L16.8511 16.7012C17.3352 13.4736 17.4884 10.205 17.3081 6.94627L15.8104 7.02911ZM6.6836 18.2504C5.6539 18.2504 4.77913 17.497 4.62639 16.4787L3.14298 16.7012C3.40587 18.4538 4.9114 19.7504 6.6836 19.7504V18.2504ZM13.3105 19.7504C15.0827 19.7504 16.5882 18.4538 16.8511 16.7012L15.3677 16.4787C15.215 17.497 14.3402 18.2504 13.3105 18.2504V19.7504Z" fill="#825310"/>
<path d="M6.40259 5.3131V4.59425C6.40259 3.641 6.78127 2.72678 7.45532 2.05273C8.12937 1.37868 9.04358 1 9.99684 1C10.9501 1 11.8643 1.37868 12.5384 2.05273C13.2124 2.72678 13.5911 3.641 13.5911 4.59425V5.3131" stroke="#825310" stroke-width="1.5" stroke-linecap="round" stroke-linejoin="round"/>
<path d="M7.84033 9.16309V15.1216" stroke="#825310" stroke-width="1.5" stroke-linecap="round" stroke-linejoin="round"/>
<path d="M12.1534 9.16309V15.1216" stroke="#825310" stroke-width="1.5" stroke-linecap="round" stroke-linejoin="round"/>
</svg>
