<svg width="20" height="26" viewBox="0 0 20 26" fill="none" xmlns="http://www.w3.org/2000/svg">
<path d="M18.1818 10C18.1818 7.83005 17.3198 5.74897 15.7854 4.21458C14.251 2.68019 12.17 1.81818 10 1.81818C7.83005 1.81818 5.74897 2.68019 4.21458 4.21458C2.68019 5.74897 1.81818 7.83005 1.81818 10C1.81818 13.3564 4.50364 17.7309 10 22.9709C15.4964 17.7309 18.1818 13.3564 18.1818 10ZM10 25.4545C3.33273 19.3945 0 14.2418 0 10C0 7.34784 1.05357 4.8043 2.92893 2.92893C4.8043 1.05357 7.34784 0 10 0C12.6522 0 15.1957 1.05357 17.0711 2.92893C18.9464 4.8043 20 7.34784 20 10C20 14.2418 16.6673 19.3945 10 25.4545Z" fill="#7E7E7E"/>
<path d="M10 12.7268C10.7234 12.7268 11.4171 12.4395 11.9285 11.928C12.44 11.4166 12.7273 10.7229 12.7273 9.99956C12.7273 9.27624 12.44 8.58255 11.9285 8.07108C11.4171 7.55962 10.7234 7.27228 10 7.27228C9.27673 7.27228 8.58303 7.55962 8.07157 8.07108C7.56011 8.58255 7.27277 9.27624 7.27277 9.99956C7.27277 10.7229 7.56011 11.4166 8.07157 11.928C8.58303 12.4395 9.27673 12.7268 10 12.7268V12.7268ZM10 14.545C8.79451 14.545 7.63836 14.0661 6.78592 13.2137C5.93348 12.3612 5.45459 11.2051 5.45459 9.99956C5.45459 8.79403 5.93348 7.63787 6.78592 6.78543C7.63836 5.933 8.79451 5.4541 10 5.4541C11.2056 5.4541 12.3617 5.933 13.2142 6.78543C14.0666 7.63787 14.5455 8.79403 14.5455 9.99956C14.5455 11.2051 14.0666 12.3612 13.2142 13.2137C12.3617 14.0661 11.2056 14.545 10 14.545Z" fill="#7E7E7E"/>
</svg>
