<svg width="22" height="22" viewBox="0 0 22 22" fill="none" xmlns="http://www.w3.org/2000/svg">
<path fill-rule="evenodd" clip-rule="evenodd" d="M11.0348 0C17.0906 0 22 4.925 22 11C22 17.075 17.0906 22 11.0348 22C4.97903 22 0.0696105 17.075 0.0696105 11C0.0696105 4.925 4.97903 0 11.0348 0ZM13.2348 7.707C13.4164 7.5184 13.5169 7.2658 13.5146 7.0036C13.5123 6.7414 13.4075 6.49059 13.2227 6.30518C13.0379 6.11977 12.7878 6.0146 12.5265 6.01233C12.2651 6.01005 12.0133 6.11084 11.8253 6.293L7.83795 10.293C7.65107 10.4805 7.54609 10.7348 7.54609 11C7.54609 11.2652 7.65107 11.5195 7.83795 11.707L11.8253 15.707C12.0133 15.8892 12.2651 15.99 12.5265 15.9877C12.7878 15.9854 13.0379 15.8802 13.2227 15.6948C13.4075 15.5094 13.5123 15.2586 13.5146 14.9964C13.5169 14.7342 13.4164 14.4816 13.2348 14.293L9.95224 11L13.2348 7.707Z" fill="#285B2D"/>
</svg>
